<?xml version="1.0" encoding="UTF-8" standalone="no"?>
<svg
   xmlns:dc="http://purl.org/dc/elements/1.1/"
   xmlns:cc="http://creativecommons.org/ns#"
   xmlns:rdf="http://www.w3.org/1999/02/22-rdf-syntax-ns#"
   xmlns:svg="http://www.w3.org/2000/svg"
   xmlns="http://www.w3.org/2000/svg"
   width="112.70055mm"
   height="106.106mm"
   viewBox="0 0 112.70055 106.106"
   version="1.1"
   id="svg1041">
  <defs
     id="defs1035" />
  <metadata
     id="metadata1038">
    <rdf:RDF>
      <cc:Work
         rdf:about="">
        <dc:format>image/svg+xml</dc:format>
        <dc:type
           rdf:resource="http://purl.org/dc/dcmitype/StillImage" />
        <dc:title></dc:title>
      </cc:Work>
    </rdf:RDF>
  </metadata>
  <g
     id="layer1"
     transform="translate(-36.63187,0.13633347)">
    <circle
       style="fill:#f6e40d;fill-opacity:1;stroke-width:0.643589;stroke-linecap:square;stroke-linejoin:round"
       id="circle1018"
       cx="93.393303"
       cy="52.916668"
       r="53.053001" />
    <path
       id="path1010"
       style="fill:#000000;stroke:#000000;stroke-width:0.254519px;stroke-linecap:butt;stroke-linejoin:miter;stroke-opacity:1"
       d="m 67.73625,26.589181 c -5.57618,-0.02655 -11.14769,0.248869 -16.71327,0.56422 -2.67545,0.379995 -5.62195,-0.338784 -8.0626,1.075734 -0.98192,1.523808 -1.9098,2.144197 -3.83717,1.730938 -2.3198,-0.834244 -2.6313,1.369594 -2.19374,3.03633 -0.79748,3.483807 5.51507,0.503068 4.75881,4.015147 0.96536,4.744566 1.4803,9.576679 2.66799,14.276446 0.67478,3.430668 2.11717,7.205738 5.52983,8.744139 4.8476,1.583198 10.07223,1.408775 15.10413,1.080217 4.16635,-0.579006 8.6565,-0.343767 12.43567,-2.461183 5.60242,-3.807094 8.41539,-10.349982 10.32095,-16.613852 2.39394,-8.377823 7.60401,-8.363625 10.4701,0 1.90555,6.26387 4.71853,12.806758 10.32096,16.613852 3.77916,2.117416 8.26928,1.882177 12.43566,2.461183 5.0319,0.328558 10.25653,0.502981 15.10413,-1.080217 3.41267,-1.538401 4.85505,-5.313471 5.52983,-8.744139 1.1877,-4.699767 1.7031,-9.53188 2.66847,-14.276446 -0.75626,-3.512079 5.55633,-0.53134 4.75882,-4.015147 0.43757,-1.666736 0.12607,-3.870574 -2.19373,-3.03633 -1.92737,0.413259 -2.85576,-0.20713 -3.83769,-1.730938 -2.44062,-1.414518 -5.38714,-0.695739 -8.06259,-1.075734 -5.56558,-0.315351 -11.13708,-0.59078 -16.71327,-0.56422 -4.26623,0.170854 -8.59181,-0.168459 -12.79606,0.747157 -2.24545,1.368584 -4.02727,4.30084 -7.0177,3.718362 -4.02865,-0.286636 -7.25404,-0.218202 -10.86329,0 -2.99042,0.582478 -4.77223,-2.349778 -7.01768,-3.718362 -4.20425,-0.915616 -8.53032,-0.576303 -12.79656,-0.747157 z M 63.0873,28.85748 c 2.6452,0.0087 5.29025,0.06618 7.93385,0.156588 3.31697,0.303711 6.90305,-0.461068 9.88997,1.414279 2.44836,1.80193 5.6018,3.81402 5.8092,7.176254 -2.09881,6.154389 -5.63381,15.577558 -10.57846,18.679831 -5.02821,1.834377 -10.375,2.949995 -15.73696,3.131786 C 55.97684,59.272309 50.70958,58.572683 48.07563,54.537103 46.37605,49.918565 44.89558,45.185543 44.21409,40.298424 43.78485,36.64637 43.34137,32.248131 46.1906,29.407781 51.81206,28.984238 57.4514,28.863262 63.0873,28.85748 Z m 59.78919,0 c 5.6359,0.0058 11.27523,0.126758 16.8967,0.550301 2.84921,2.84035 2.40623,7.238589 1.977,10.890643 -0.6815,4.887119 -2.16193,9.620141 -3.86154,14.238679 -2.63392,4.03558 -7.90168,4.735206 -12.32976,4.879115 -5.36196,-0.181791 -10.70875,-1.297409 -15.73695,-3.131786 -4.22111,-3.573288 -9.87279,-14.108121 -10.57847,-18.679831 0.20744,-3.362234 3.36083,-5.374324 5.80921,-7.176254 2.9869,-1.875347 6.57298,-1.110568 9.88996,-1.414279 2.64359,-0.09033 5.28865,-0.148123 7.93385,-0.156588 z" />
    <path
       id="path1012"
       style="fill:#000000;stroke-width:3.33321;stroke-linecap:square;stroke-linejoin:round;stroke-miterlimit:4;stroke-dasharray:none"
       d="m 73.24865,32.929793 a 8.2273091,8.3558604 0 0 0 -8.22714,8.355892 8.2273091,8.3558604 0 0 0 8.22714,8.35589 8.2273091,8.3558604 0 0 0 8.22764,-8.35589 8.2273091,8.3558604 0 0 0 -8.22764,-8.355892 z m 2.31404,2.057034 a 3.3423443,3.3945681 0 0 1 3.34255,3.394751 3.3423443,3.3945681 0 0 1 -3.34255,3.394256 3.3423443,3.3945681 0 0 1 -3.34206,-3.394256 3.3423443,3.3945681 0 0 1 3.34206,-3.394751 z" />
    <path
       id="path1014"
       style="fill:#000000;stroke-width:3.33321;stroke-linecap:square;stroke-linejoin:round;stroke-miterlimit:4;stroke-dasharray:none"
       d="m 117.78607,32.929793 a 8.2273091,8.3558604 0 0 0 -8.22715,8.355892 8.2273091,8.3558604 0 0 0 8.22715,8.35589 8.2273091,8.3558604 0 0 0 8.22714,-8.35589 8.2273091,8.3558604 0 0 0 -8.22714,-8.355892 z m 2.31404,2.057034 a 3.3423443,3.3945681 0 0 1 3.34205,3.394751 3.3423443,3.3945681 0 0 1 -3.34205,3.394256 3.3423443,3.3945681 0 0 1 -3.34257,-3.394256 3.3423443,3.3945681 0 0 1 3.34257,-3.394751 z" />
    <path
       id="path1016"
       style="fill:#000000;fill-opacity:1;stroke:none;stroke-width:4.01992;stroke-linecap:square;stroke-linejoin:round;stroke-miterlimit:4;stroke-dasharray:none"
       d="m 73.67438,70.676983 c 0.21158,10.061789 9.38491,18.119428 20.6282,18.119306 11.24309,-1.29e-4 20.41612,-8.057697 20.62768,-18.119306 h -2.87269 c -0.18356,8.725865 -8.13885,14.390774 -17.88935,14.390853 -9.75069,1.75e-4 -17.7063,-5.664808 -17.88986,-14.390853 z" />
  </g>
</svg>
